<svg width="640" height="640" viewBox="0 0 640 640" fill="none" xmlns="http://www.w3.org/2000/svg">
  <rect width="640" height="640" rx="48" fill="#1E2A36"/>
  <rect x="42" y="42" width="556" height="556" rx="32" fill="url(#paint0_linear_1_2)" stroke="#D8B470" stroke-width="6"/>
  <circle cx="320" cy="250" r="118" fill="#E7C582"/>
  <path d="M180 470C180 385.948 248.948 317 333 317H334C418.052 317 487 385.948 487 470V526H180V470Z" fill="#D6AE67"/>
  <path d="M181 526H488V560C488 566.627 482.627 572 476 572H193C186.373 572 181 566.627 181 560V526Z" fill="#F6E7BF"/>
  <path d="M256 160L320 94L384 160V219H256V160Z" fill="#314B57"/>
  <path d="M296 94H344V56H296V94Z" fill="#314B57"/>
  <defs>
    <linearGradient id="paint0_linear_1_2" x1="66" y1="64" x2="584" y2="592" gradientUnits="userSpaceOnUse">
      <stop stop-color="#243442"/>
      <stop offset="1" stop-color="#13202B"/>
    </linearGradient>
  </defs>
</svg>
