<svg width="1200" height="800" viewBox="0 0 1200 800" fill="none" xmlns="http://www.w3.org/2000/svg">
  <rect width="1200" height="800" fill="#141713"/>
  <rect width="1200" height="800" fill="url(#bg)"/>
  <ellipse cx="608" cy="642" rx="280" ry="92" fill="#09100D" fill-opacity="0.56"/>
  <path d="M262 616C354 538 464 502 604 502C744 502 860 538 948 616L878 672C790 708 704 724 604 724C504 724 420 706 330 672L262 616Z" fill="#2C4536"/>
  <path d="M340 610L398 462H812L870 610L760 660H450L340 610Z" fill="#4D3B2B" stroke="#88C6DD" stroke-opacity="0.42" stroke-width="8"/>
  <path d="M450 660L500 410H700L760 660" fill="#6F5A44"/>
  <path d="M450 660L500 410H700L760 660" stroke="#1B1815" stroke-opacity="0.42" stroke-width="6"/>
  <path d="M502 410L602 290L700 410H502Z" fill="#88C6DD"/>
  <path d="M548 410L602 334L654 410H548Z" fill="#F0D08E"/>
  <rect x="566" y="430" width="72" height="168" rx="8" fill="#E7D6A8"/>
  <rect x="484" y="488" width="54" height="98" rx="8" fill="#D0BD91"/>
  <rect x="670" y="488" width="54" height="98" rx="8" fill="#D0BD91"/>
  <path d="M364 596L396 456H454L474 596H364Z" fill="#7C654D"/>
  <path d="M748 596L768 456H826L858 596H748Z" fill="#7C654D"/>
  <path d="M370 456L410 404L448 456H370Z" fill="#C89A65"/>
  <path d="M754 456L792 404L832 456H754Z" fill="#C89A65"/>
  <rect x="584" y="234" width="36" height="92" rx="8" fill="#E7D6A8"/>
  <path d="M572 234L602 170L632 234H572Z" fill="#F0D08E"/>
  <circle cx="602" cy="156" r="18" fill="#88C6DD"/>
  <circle cx="602" cy="156" r="42" fill="#88C6DD" fill-opacity="0.18"/>
  <path d="M230 282C280 226 352 194 430 194H458V250H430C368 250 318 272 282 312L230 282Z" fill="#22372B"/>
  <path d="M974 282C924 226 852 194 774 194H746V250H774C836 250 886 272 922 312L974 282Z" fill="#22372B"/>
  <path d="M226 278C282 210 364 172 450 172H490" stroke="#88C6DD" stroke-opacity="0.42" stroke-width="18" stroke-linecap="round"/>
  <path d="M978 278C922 210 840 172 754 172H714" stroke="#88C6DD" stroke-opacity="0.42" stroke-width="18" stroke-linecap="round"/>
  <path d="M444 148C478 132 508 126 544 126H662C700 126 730 132 764 148" stroke="#F0D08E" stroke-opacity="0.8" stroke-width="10" stroke-linecap="round"/>
  <circle cx="312" cy="212" r="18" fill="#A5D7E8" fill-opacity="0.2"/>
  <circle cx="890" cy="212" r="18" fill="#A5D7E8" fill-opacity="0.2"/>
  <path d="M560 92C574 72 592 62 602 62C612 62 630 72 644 92" stroke="#A5D7E8" stroke-width="10" stroke-linecap="round"/>
  <path d="M196 670L246 610L298 670" stroke="#3B5A47" stroke-width="22" stroke-linecap="round" stroke-linejoin="round"/>
  <path d="M906 670L958 610L1008 670" stroke="#3B5A47" stroke-width="22" stroke-linecap="round" stroke-linejoin="round"/>
  <defs>
    <linearGradient id="bg" x1="600" y1="0" x2="600" y2="800" gradientUnits="userSpaceOnUse">
      <stop stop-color="#24362C"/>
      <stop offset="1" stop-color="#101411"/>
    </linearGradient>
  </defs>
</svg>
